JetBrainsMono-Italic.ufo
<glyph name="numbersign" format="2">
  <advance width="600"/>
  <unicode hex="0023"/>
  <outline>
    <contour>
      <point x="38" y="0" type="line"/>
      <point x="111" y="0" type="line"/>
      <point x="180" y="200" type="line"/>
      <point x="336" y="200" type="line"/>
      <point x="267" y="0" type="line"/>
      <point x="340" y="0" type="line"/>
      <point x="409" y="200" type="line"/>
      <point x="518" y="200" type="line"/>
      <point x="528" y="265" type="line"/>
      <point x="431" y="265" type="line"/>
      <point x="499" y="465" type="line"/>
      <point x="595" y="465" type="line"/>
      <point x="605" y="530" type="line"/>
      <point x="521" y="530" type="line"/>
      <point x="590" y="730" type="line"/>
      <point x="517" y="730" type="line"/>
      <point x="448" y="530" type="line"/>
      <point x="292" y="530" type="line"/>
      <point x="361" y="730" type="line"/>
      <point x="288" y="730" type="line"/>
      <point x="219" y="530" type="line"/>
      <point x="110" y="530" type="line"/>
      <point x="100" y="465" type="line"/>
      <point x="197" y="465" type="line"/>
      <point x="129" y="265" type="line"/>
      <point x="33" y="265" type="line"/>
      <point x="23" y="200" type="line"/>
      <point x="107" y="200" type="line"/>
    </contour>
    <contour>
      <point x="202" y="265" type="line"/>
      <point x="270" y="465" type="line"/>
      <point x="426" y="465" type="line"/>
      <point x="358" y="265" type="line"/>
    </contour>
  </outline>
</glyph>
<glyph name="parenleft" format="2">
  <advance width="600"/>
  <unicode hex="0028"/>
  <outline>
    <contour>
      <point x="421" y="-125" type="curve"/>
      <point x="435" y="-36" type="line"/>
      <point x="311" y="-6"/>
      <point x="248" y="110"/>
      <point x="273" y="265" type="curve" smooth="yes"/>
      <point x="303" y="455" type="line" smooth="yes"/>
      <point x="328" y="612"/>
      <point x="429" y="730"/>
      <point x="561" y="760" type="curve"/>
      <point x="575" y="845" type="line"/>
      <point x="383" y="799"/>
      <point x="244" y="650"/>
      <point x="213" y="455" type="curve" smooth="yes"/>
      <point x="183" y="265" type="line" smooth="yes"/>
      <point x="151" y="66"/>
      <point x="240" y="-78"/>
    </contour>
  </outline>
</glyph>
<glyph name="asterisk" format="2">
  <advance width="600"/>
  <unicode hex="002A"/>
  <outline>
    <contour>
      <point x="153" y="94" type="line"/>
      <point x="219" y="172" type="line" smooth="yes"/>
      <point x="250" y="209"/>
      <point x="282" y="264"/>
      <point x="301" y="300" type="curve"/>
      <point x="308" y="300" type="line"/>
      <point x="314" y="264"/>
      <point x="327" y="208"/>
      <point x="347" y="172" type="curve" smooth="yes"/>
      <point x="390" y="94" type="line"/>
      <point x="470" y="144" type="line"/>
      <point x="427" y="222" type="line" smooth="yes"/>
      <point x="407" y="258"/>
      <point x="370" y="298"/>
      <point x="344" y="322" type="curve"/>
      <point x="349" y="330" type="line"/>
      <point x="388" y="333"/>
      <point x="446" y="340"/>
      <point x="489" y="355" type="curve" smooth="yes"/>
      <point x="583" y="387" type="line"/>
      <point x="566" y="470" type="line"/>
      <point x="472" y="438" type="line" smooth="yes"/>
      <point x="428" y="423"/>
      <point x="373" y="390"/>
      <point x="338" y="367" type="curve"/>
      <point x="334" y="371" type="line"/>
      <point x="351" y="408"/>
      <point x="376" y="469"/>
      <point x="383" y="515" type="curve" smooth="yes"/>
      <point x="398" y="610" type="line"/>
      <point x="310" y="610" type="line"/>
      <point x="295" y="515" type="line" smooth="yes"/>
      <point x="288" y="469"/>
      <point x="293" y="408"/>
      <point x="297" y="371" type="curve"/>
      <point x="291" y="367" type="line"/>
      <point x="264" y="390"/>
      <point x="219" y="423"/>
      <point x="179" y="438" type="curve" smooth="yes"/>
      <point x="96" y="470" type="line"/>
      <point x="53" y="387" type="line"/>
      <point x="136" y="355" type="line" smooth="yes"/>
      <point x="175" y="340"/>
      <point x="232" y="333"/>
      <point x="269" y="330" type="curve"/>
      <point x="271" y="323" type="line"/>
      <point x="238" y="299"/>
      <point x="187" y="259"/>
      <point x="155" y="222" type="curve" smooth="yes"/>
      <point x="89" y="144" type="line"/>
    </contour>
  </outline>
</glyph>
<glyph name="period" format="2">
  <advance width="600"/>
  <unicode hex="002E"/>
  <outline>
    <contour>
      <point x="254" y="-10" type="curve" smooth="yes"/>
      <point x="305" y="-10"/>
      <point x="342" y="21"/>
      <point x="350" y="71" type="curve" smooth="yes"/>
      <point x="358" y="123"/>
      <point x="332" y="156"/>
      <point x="281" y="156" type="curve" smooth="yes"/>
      <point x="230" y="156"/>
      <point x="192" y="123"/>
      <point x="184" y="71" type="curve" smooth="yes"/>
      <point x="176" y="21"/>
      <point x="203" y="-10"/>
    </contour>
  </outline>
</glyph>
<glyph name="A" format="2">
  <advance width="600"/>
  <unicode hex="0041"/>
  <anchor x="256" y="0" name="bottom"/>
  <anchor x="455" y="0" name="ogonek"/>
  <anchor x="372" y="730" name="top"/>
  <outline>
    <contour>
      <point x="6" y="0" type="line"/>
      <point x="101" y="0" type="line"/>
      <point x="180" y="194" type="line"/>
      <point x="401" y="194" type="line"/>
      <point x="418" y="0" type="line"/>
      <point x="506" y="0" type="line"/>
      <point x="433" y="730" type="line"/>
      <point x="312" y="730" type="line"/>
    </contour>
    <contour>
      <point x="210" y="270" type="line"/>
      <point x="302" y="496" type="line" smooth="yes"/>
      <point x="336" y="580"/>
      <point x="357" y="640"/>
      <point x="363" y="658" type="curve"/>
      <point x="363" y="640"/>
      <point x="365" y="580"/>
      <point x="373" y="495" type="curve" smooth="yes"/>
      <point x="394" y="270" type="line"/>
    </contour>
  </outline>
</glyph>
<glyph name="R" format="2">
  <advance width="600"/>
  <unicode hex="0052"/>
  <anchor x="256" y="0" name="bottom"/>
  <anchor x="372" y="730" name="top"/>
  <outline>
    <contour>
      <point x="48" y="0" type="line"/>
      <point x="138" y="0" type="line"/>
      <point x="187" y="310" type="line"/>
      <point x="304" y="310" type="line"/>
      <point x="399" y="0" type="line"/>
      <point x="501" y="0" type="line"/>
      <point x="383" y="359" type="line"/>
      <point x="372" y="314" type="line"/>
      <point x="478" y="333"/>
      <point x="557" y="411"/>
      <point x="573" y="520" type="curve" smooth="yes"/>
      <point x="593" y="645"/>
      <point x="520" y="730"/>
      <point x="390" y="730" type="curve" smooth="yes"/>
      <point x="164" y="730" type="line"/>
    </contour>
    <contour>
      <point x="200" y="391" type="line"/>
      <point x="241" y="649" type="line"/>
      <point x="377" y="649" type="line" smooth="yes"/>
      <point x="451" y="649"/>
      <point x="493" y="598"/>
      <point x="480" y="520" type="curve" smooth="yes"/>
      <point x="468" y="442"/>
      <point x="411" y="391"/>
      <point x="336" y="391" type="curve" smooth="yes"/>
    </contour>
  </outline>
</glyph>
<glyph name="S" format="2">
  <advance width="600"/>
  <unicode hex="0053"/>
  <anchor x="256" y="0" name="bottom"/>
  <anchor x="372" y="730" name="top"/>
  <outline>
    <contour>
      <point x="258" y="-10" type="curve" smooth="yes"/>
      <point x="392" y="-10"/>
      <point x="495" y="70"/>
      <point x="514" y="190" type="curve" smooth="yes"/>
      <point x="529" y="287"/>
      <point x="484" y="363"/>
      <point x="392" y="394" type="curve" smooth="yes"/>
      <point x="297" y="426" type="line" smooth="yes"/>
      <point x="242" y="444"/>
      <point x="216" y="492"/>
      <point x="226" y="554" type="curve" smooth="yes"/>
      <point x="236" y="620"/>
      <point x="288" y="660"/>
      <point x="366" y="660" type="curve" smooth="yes"/>
      <point x="445" y="660"/>
      <point x="483" y="617"/>
      <point x="471" y="545" type="curve"/>
      <point x="561" y="545" type="line"/>
      <point x="578" y="663"/>
      <point x="507" y="741"/>
      <point x="379" y="741" type="curve" smooth="yes"/>
      <point x="249" y="741"/>
      <point x="153" y="663"/>
      <point x="134" y="546" type="curve" smooth="yes"/>
      <point x="120" y="450"/>
      <point x="167" y="375"/>
      <point x="260" y="345" type="curve" smooth="yes"/>
      <point x="354" y="314" type="line" smooth="yes"/>
      <point x="407" y="297"/>
      <point x="433" y="250"/>
      <point x="424" y="188" type="curve" smooth="yes"/>
      <point x="412" y="115"/>
      <point x="355" y="71"/>
      <point x="271" y="71" type="curve" smooth="yes"/>
      <point x="181" y="71"/>
      <point x="136" y="116"/>
      <point x="148" y="190" type="curve"/>
      <point x="58" y="190" type="line"/>
      <point x="40" y="66"/>
      <point x="115" y="-10"/>
    </contour>
  </outline>
</glyph>
<glyph name="T" format="2">
  <advance width="600"/>
  <unicode hex="0054"/>
  <anchor x="256" y="0" name="bottom"/>
  <anchor x="314" y="365" name="center"/>
  <anchor x="372" y="730" name="top"/>
  <outline>
    <contour>
      <point x="211" y="0" type="line"/>
      <point x="301" y="0" type="line"/>
      <point x="404" y="648" type="line"/>
      <point x="604" y="648" type="line"/>
      <point x="617" y="730" type="line"/>
      <point x="127" y="730" type="line"/>
      <point x="114" y="648" type="line"/>
      <point x="314" y="648" type="line"/>
    </contour>
  </outline>
</glyph>
<glyph name="V" format="2">
  <advance width="600"/>
  <unicode hex="0056"/>
  <anchor x="256" y="0" name="bottom"/>
  <anchor x="372" y="730" name="top"/>
  <outline>
    <contour>
      <point x="194" y="0" type="line"/>
      <point x="317" y="0" type="line"/>
      <point x="622" y="730" type="line"/>
      <point x="529" y="730" type="line"/>
      <point x="327" y="234" type="line" smooth="yes"/>
      <point x="299" y="165"/>
      <point x="277" y="100"/>
      <point x="268" y="70" type="curve"/>
      <point x="268" y="100"/>
      <point x="264" y="165"/>
      <point x="258" y="234" type="curve" smooth="yes"/>
      <point x="213" y="730" type="line"/>
      <point x="122" y="730" type="line"/>
    </contour>
  </outline>
</glyph>
<glyph name="asciicircum" format="2">
  <advance width="600"/>
  <unicode hex="005E"/>
  <outline>
    <contour>
      <point x="90" y="340" type="line"/>
      <point x="174" y="340" type="line"/>
      <point x="330" y="598" type="line" smooth="yes"/>
      <point x="346" y="624"/>
      <point x="359" y="651"/>
      <point x="366" y="665" type="curve"/>
      <point x="368" y="651"/>
      <point x="374" y="624"/>
      <point x="381" y="598" type="curve" smooth="yes"/>
      <point x="452" y="340" type="line"/>
      <point x="530" y="340" type="line"/>
      <point x="415" y="730" type="line"/>
      <point x="331" y="730" type="line"/>
    </contour>
  </outline>
</glyph>
<glyph name="s" format="2">
  <advance width="600"/>
  <unicode hex="0073"/>
  <anchor x="257" y="0" name="bottom"/>
  <anchor x="344" y="550" name="top"/>
  <outline>
    <contour>
      <point x="232" y="-10" type="curve" smooth="yes"/>
      <point x="274" y="-10" type="line" smooth="yes"/>
      <point x="404" y="-10"/>
      <point x="479" y="53"/>
      <point x="496" y="155" type="curve" smooth="yes"/>
      <point x="511" y="251"/>
      <point x="465" y="296"/>
      <point x="350" y="315" type="curve" smooth="yes"/>
      <point x="278" y="327" type="line" smooth="yes"/>
      <point x="222" y="336"/>
      <point x="201" y="357"/>
      <point x="208" y="402" type="curve" smooth="yes"/>
      <point x="216" y="452"/>
      <point x="250" y="480"/>
      <point x="318" y="480" type="curve" smooth="yes"/>
      <point x="356" y="480" type="line" smooth="yes"/>
      <point x="410" y="480"/>
      <point x="439" y="456"/>
      <point x="442" y="421" type="curve"/>
      <point x="532" y="421" type="line"/>
      <point x="532" y="505"/>
      <point x="474" y="560"/>
      <point x="369" y="560" type="curve" smooth="yes"/>
      <point x="331" y="560" type="line" smooth="yes"/>
      <point x="206" y="560"/>
      <point x="133" y="501"/>
      <point x="118" y="403" type="curve" smooth="yes"/>
      <point x="103" y="310"/>
      <point x="149" y="265"/>
      <point x="254" y="248" type="curve" smooth="yes"/>
      <point x="326" y="236" type="line" smooth="yes"/>
      <point x="385" y="226"/>
      <point x="412" y="198"/>
      <point x="405" y="151" type="curve" smooth="yes"/>
      <point x="397" y="103"/>
      <point x="358" y="70"/>
      <point x="287" y="70" type="curve" smooth="yes"/>
      <point x="245" y="70" type="line" smooth="yes"/>
      <point x="186" y="70"/>
      <point x="154" y="96"/>
      <point x="152" y="135" type="curve"/>
      <point x="62" y="135" type="line"/>
      <point x="58" y="47"/>
      <point x="119" y="-10"/>
    </contour>
  </outline>
</glyph>
<glyph name="dcaron" format="2">
  <advance width="600"/>
  <unicode hex="010F"/>
  <outline>
    <contour>
      <point x="553" y="550" type="line"/>
      <point x="633" y="550" type="line"/>
      <point x="672" y="730" type="line"/>
      <point x="582" y="730" type="line"/>
    </contour>
    <contour>
      <point x="182" y="-10" type="curve" smooth="yes"/>
      <point x="265" y="-10"/>
      <point x="326" y="43"/>
      <point x="339" y="126" type="curve"/>
      <point x="318" y="105" type="line"/>
      <point x="336" y="105" type="line"/>
      <point x="319" y="0" type="line"/>
      <point x="409" y="0" type="line"/>
      <point x="525" y="730" type="line"/>
      <point x="435" y="730" type="line"/>
      <point x="409" y="570" type="line"/>
      <point x="391" y="445" type="line"/>
      <point x="371" y="445" type="line"/>
      <point x="386" y="424" type="line"/>
      <point x="399" y="507"/>
      <point x="356" y="560"/>
      <point x="273" y="560" type="curve" smooth="yes"/>
      <point x="172" y="560"/>
      <point x="95" y="483"/>
      <point x="76" y="360" type="curve" smooth="yes"/>
      <point x="49" y="189" type="line" smooth="yes"/>
      <point x="30" y="67"/>
      <point x="81" y="-10"/>
    </contour>
    <contour>
      <point x="225" y="68" type="curve" smooth="yes"/>
      <point x="159" y="68"/>
      <point x="127" y="115"/>
      <point x="140" y="195" type="curve" smooth="yes"/>
      <point x="165" y="355" type="line" smooth="yes"/>
      <point x="178" y="435"/>
      <point x="224" y="482"/>
      <point x="290" y="482" type="curve" smooth="yes"/>
      <point x="356" y="482"/>
      <point x="388" y="435"/>
      <point x="375" y="355" type="curve" smooth="yes"/>
      <point x="350" y="195" type="line" smooth="yes"/>
      <point x="337" y="115"/>
      <point x="291" y="68"/>
    </contour>
  </outline>
</glyph>
<glyph name="Iogonek" format="2">
  <advance width="600"/>
  <unicode hex="012E"/>
  <anchor x="256" y="0" name="bottom"/>
  <anchor x="280" y="0" name="ogonek"/>
  <anchor x="372" y="730" name="top"/>
  <anchor x="92" y="730" name="topleft"/>
  <outline>
    <contour>
      <point x="231" y="-203" type="curve" smooth="yes"/>
      <point x="309" y="-203" type="line"/>
      <point x="318" y="-143" type="line"/>
      <point x="258" y="-143" type="line" smooth="yes"/>
      <point x="224" y="-143"/>
      <point x="207" y="-122"/>
      <point x="211" y="-93" type="curve" smooth="yes"/>
      <point x="216" y="-65"/>
      <point x="239" y="-36"/>
      <point x="290" y="1" type="curve"/>
      <point x="303" y="10" type="line"/>
      <point x="228" y="10" type="line"/>
      <point x="158" y="-34"/>
      <point x="130" y="-72"/>
      <point x="124" y="-110" type="curve" smooth="yes"/>
      <point x="115" y="-164"/>
      <point x="157" y="-203"/>
    </contour>
    <component base="I"/>
  </outline>
</glyph>
<glyph name="tcedilla" format="2">
  <advance width="600"/>
  <unicode hex="0163"/>
  <anchor x="360" y="0" name="_bottom"/>
  <anchor x="316" y="0" name="bottom"/>
  <anchor x="300" y="275" name="center"/>
  <anchor x="375" y="700" name="top"/>
  <anchor x="624" y="550" name="topright"/>
  <outline>
    <contour>
      <point x="265" y="-203" type="line"/>
      <point x="350" y="-203" type="line" smooth="yes"/>
      <point x="422" y="-203"/>
      <point x="470" y="-166"/>
      <point x="470" y="-120" type="curve" smooth="yes"/>
      <point x="470" y="-68"/>
      <point x="402" y="-41"/>
      <point x="350" y="-35" type="curve"/>
      <point x="371" y="26" type="line"/>
      <point x="314" y="26" type="line"/>
      <point x="279" y="-69" type="line"/>
      <point x="346" y="-69"/>
      <point x="384" y="-89"/>
      <point x="384" y="-112" type="curve" smooth="yes"/>
      <point x="384" y="-130"/>
      <point x="364" y="-148"/>
      <point x="335" y="-148" type="curve" smooth="yes"/>
      <point x="265" y="-148" type="line"/>
    </contour>
    <component base="t"/>
  </outline>
</glyph>
<glyph name="ohorn" format="2">
  <advance width="600"/>
  <unicode hex="01A1"/>
  <anchor x="333" y="550" name="top"/>
  <anchor x="256" y="0" name="bottom"/>
  <anchor x="300" y="275" name="center"/>
  <anchor x="375" y="550" name="horn"/>
  <anchor x="305" y="0" name="ogonek"/>
  <anchor x="624" y="550" name="topright"/>
  <outline>
    <contour>
      <point x="426" y="465" type="line"/>
      <point x="465" y="465" type="line" smooth="yes"/>
      <point x="528" y="465"/>
      <point x="576" y="503"/>
      <point x="585" y="560" type="curve" smooth="yes"/>
      <point x="597" y="640" type="line"/>
      <point x="522" y="640" type="line"/>
      <point x="510" y="565" type="line" smooth="yes"/>
      <point x="507" y="542"/>
      <point x="493" y="530"/>
      <point x="470" y="530" type="curve" smooth="yes"/>
      <point x="436" y="530" type="line"/>
    </contour>
    <component base="o"/>
  </outline>
</glyph>
<glyph name="primemod" format="2">
  <advance width="600"/>
  <unicode hex="02B9"/>
  <outline>
    <contour>
      <point x="186" y="410" type="line"/>
      <point x="266" y="410" type="line"/>
      <point x="445" y="721" type="line"/>
      <point x="315" y="721" type="line"/>
    </contour>
  </outline>
</glyph>
<glyph name="lowtildemod" format="2">
  <advance width="600"/>
  <unicode hex="02F7"/>
  <anchor x="300" y="-295" name="_top"/>
  <outline>
    <contour>
      <point x="370" y="-210" type="curve" smooth="yes"/>
      <point x="424" y="-210"/>
      <point x="460" y="-175"/>
      <point x="460" y="-115" type="curve" smooth="yes"/>
      <point x="460" y="-85" type="line"/>
      <point x="395" y="-85" type="line"/>
      <point x="395" y="-115" type="line" smooth="yes"/>
      <point x="395" y="-139"/>
      <point x="383" y="-150"/>
      <point x="365" y="-150" type="curve" smooth="yes"/>
      <point x="320" y="-150"/>
      <point x="310" y="-80"/>
      <point x="230" y="-80" type="curve" smooth="yes"/>
      <point x="176" y="-80"/>
      <point x="140" y="-115"/>
      <point x="140" y="-175" type="curve" smooth="yes"/>
      <point x="140" y="-205" type="line"/>
      <point x="205" y="-205" type="line"/>
      <point x="205" y="-175" type="line" smooth="yes"/>
      <point x="205" y="-151"/>
      <point x="217" y="-140"/>
      <point x="235" y="-140" type="curve" smooth="yes"/>
      <point x="280" y="-140"/>
      <point x="290" y="-210"/>
    </contour>
  </outline>
</glyph>
<glyph name="tonos" format="2">
  <advance width="600"/>
  <unicode hex="0384"/>
  <anchor x="313" y="550" name="_top"/>
  <outline>
    <contour>
      <point x="270" y="645" type="line"/>
      <point x="362" y="645" type="line"/>
      <point x="495" y="785" type="line"/>
      <point x="398" y="785" type="line"/>
    </contour>
  </outline>
</glyph>
<glyph name="dieresistonos" format="2">
  <advance width="600"/>
  <unicode hex="0385"/>
  <outline>
    <contour>
      <point x="337" y="769" type="line"/>
      <point x="407" y="769" type="line"/>
      <point x="516" y="900" type="line"/>
      <point x="436" y="900" type="line"/>
    </contour>
    <contour>
      <point x="470" y="649" type="curve" smooth="yes"/>
      <point x="509" y="649"/>
      <point x="538" y="673"/>
      <point x="544" y="712" type="curve" smooth="yes"/>
      <point x="550" y="752"/>
      <point x="529" y="777"/>
      <point x="490" y="777" type="curve" smooth="yes"/>
      <point x="451" y="777"/>
      <point x="422" y="752"/>
      <point x="416" y="712" type="curve" smooth="yes"/>
      <point x="410" y="673"/>
      <point x="431" y="649"/>
    </contour>
    <contour>
      <point x="248" y="649" type="curve" smooth="yes"/>
      <point x="287" y="649"/>
      <point x="316" y="673"/>
      <point x="322" y="712" type="curve" smooth="yes"/>
      <point x="328" y="752"/>
      <point x="307" y="777"/>
      <point x="268" y="777" type="curve" smooth="yes"/>
      <point x="229" y="777"/>
      <point x="200" y="752"/>
      <point x="194" y="712" type="curve" smooth="yes"/>
      <point x="188" y="673"/>
      <point x="209" y="649"/>
    </contour>
  </outline>
</glyph>
<glyph name="Lambda" format="2">
  <advance width="600"/>
  <unicode hex="039B"/>
  <outline>
    <contour>
      <point x="6" y="0" type="line"/>
      <point x="101" y="0" type="line"/>
      <point x="302" y="496" type="line" smooth="yes"/>
      <point x="340" y="590"/>
      <point x="362" y="660"/>
      <point x="362" y="660" type="curve"/>
      <point x="362" y="660"/>
      <point x="364" y="590"/>
      <point x="373" y="495" type="curve" smooth="yes"/>
      <point x="418" y="0" type="line"/>
      <point x="506" y="0" type="line"/>
      <point x="433" y="730" type="line"/>
      <point x="312" y="730" type="line"/>
    </contour>
  </outline>
</glyph>
<glyph name="phi" format="2">
  <advance width="600"/>
  <unicode hex="03C6"/>
  <outline>
    <contour>
      <point x="186" y="-180" type="line"/>
      <point x="268" y="-180" type="line"/>
      <point x="297" y="0" type="line"/>
      <point x="425" y="0"/>
      <point x="513" y="78"/>
      <point x="533" y="202" type="curve" smooth="yes"/>
      <point x="563" y="390" type="line" smooth="yes"/>
      <point x="578" y="488"/>
      <point x="521" y="550"/>
      <point x="415" y="550" type="curve" smooth="yes"/>
      <point x="307" y="550" type="line"/>
      <point x="231" y="71" type="line"/>
      <point x="151" y="71"/>
      <point x="113" y="120"/>
      <point x="126" y="202" type="curve" smooth="yes"/>
      <point x="181" y="550" type="line"/>
      <point x="98" y="550" type="line"/>
      <point x="43" y="202" type="line" smooth="yes"/>
      <point x="23" y="78"/>
      <point x="87" y="0"/>
      <point x="215" y="0" type="curve"/>
    </contour>
    <contour>
      <point x="303" y="71" type="curve"/>
      <point x="368" y="480" type="line"/>
      <point x="404" y="480" type="line" smooth="yes"/>
      <point x="460" y="480"/>
      <point x="489" y="446"/>
      <point x="480" y="390" type="curve" smooth="yes"/>
      <point x="450" y="202" type="line" smooth="yes"/>
      <point x="437" y="120"/>
      <point x="382" y="71"/>
    </contour>
  </outline>
</glyph>
<glyph name="KaiSymbol" format="2">
  <advance width="600"/>
  <unicode hex="03CF"/>
  <anchor x="256" y="0" name="bottom"/>
  <anchor x="372" y="730" name="top"/>
  <outline>
    <contour>
      <point x="291" y="-180" type="line"/>
      <point x="320" y="-180" type="line" smooth="yes"/>
      <point x="442" y="-180"/>
      <point x="517" y="-117"/>
      <point x="536" y="0" type="curve" smooth="yes"/>
      <point x="547" y="71" type="line"/>
      <point x="461" y="71" type="line"/>
      <point x="450" y="0" type="line" smooth="yes"/>
      <point x="440" y="-62"/>
      <point x="393" y="-101"/>
      <point x="333" y="-101" type="curve" smooth="yes"/>
      <point x="304" y="-101" type="line"/>
    </contour>
    <component base="K"/>
  </outline>
</glyph>
<glyph name="piSymbol" format="2">
  <advance width="600"/>
  <unicode hex="03D6"/>
  <outline>
    <contour>
      <point x="136" y="-10" type="curve" smooth="yes"/>
      <point x="202" y="-10"/>
      <point x="252" y="30"/>
      <point x="272" y="97" type="curve"/>
      <point x="272" y="30"/>
      <point x="308" y="-10"/>
      <point x="374" y="-10" type="curve" smooth="yes"/>
      <point x="452" y="-10"/>
      <point x="510" y="51"/>
      <point x="526" y="151" type="curve" smooth="yes"/>
      <point x="556" y="339" type="line" smooth="yes"/>
      <point x="570" y="429"/>
      <point x="520" y="484"/>
      <point x="425" y="484" type="curve"/>
      <point x="487" y="459" type="line"/>
      <point x="488" y="468" type="line"/>
      <point x="616" y="468" type="line"/>
      <point x="629" y="550" type="line"/>
      <point x="59" y="550" type="line"/>
      <point x="46" y="468" type="line"/>
      <point x="174" y="468" type="line"/>
      <point x="173" y="459" type="line"/>
      <point x="243" y="484" type="line"/>
      <point x="148" y="484"/>
      <point x="80" y="429"/>
      <point x="66" y="339" type="curve" smooth="yes"/>
      <point x="36" y="151" type="line" smooth="yes"/>
      <point x="20" y="51"/>
      <point x="58" y="-10"/>
    </contour>
    <contour>
      <point x="168" y="66" type="curve" smooth="yes"/>
      <point x="129" y="66"/>
      <point x="112" y="96"/>
      <point x="121" y="150" type="curve" smooth="yes"/>
      <point x="158" y="384" type="line" smooth="yes"/>
      <point x="166" y="438"/>
      <point x="193" y="468"/>
      <point x="232" y="468" type="curve" smooth="yes"/>
      <point x="430" y="468" type="line" smooth="yes"/>
      <point x="469" y="468"/>
      <point x="486" y="438"/>
      <point x="478" y="384" type="curve" smooth="yes"/>
      <point x="441" y="150" type="line" smooth="yes"/>
      <point x="432" y="96"/>
      <point x="405" y="66"/>
      <point x="366" y="66" type="curve" smooth="yes"/>
      <point x="327" y="66"/>
      <point x="309" y="96"/>
      <point x="318" y="150" type="curve" smooth="yes"/>
      <point x="349" y="345" type="line"/>
      <point x="275" y="345" type="line"/>
      <point x="244" y="150" type="line" smooth="yes"/>
      <point x="235" y="96"/>
      <point x="207" y="66"/>
    </contour>
  </outline>
</glyph>
<glyph name="zhe-cy" format="2">
  <advance width="600"/>
  <unicode hex="0436"/>
  <outline>
    <contour>
      <point x="-26" y="0" type="line"/>
      <point x="65" y="0" type="line"/>
      <point x="206" y="250" type="line"/>
      <point x="258" y="250" type="line"/>
      <point x="218" y="0" type="line"/>
      <point x="294" y="0" type="line"/>
      <point x="334" y="250" type="line"/>
      <point x="390" y="250" type="line"/>
      <point x="450" y="0" type="line"/>
      <point x="538" y="0" type="line"/>
      <point x="463" y="282" type="line"/>
      <point x="617" y="550" type="line"/>
      <point x="529" y="550" type="line"/>
      <point x="392" y="310" type="line"/>
      <point x="343" y="310" type="line"/>
      <point x="381" y="550" type="line"/>
      <point x="305" y="550" type="line"/>
      <point x="267" y="310" type="line"/>
      <point x="212" y="310" type="line"/>
      <point x="154" y="550" type="line"/>
      <point x="69" y="550" type="line"/>
      <point x="139" y="285" type="line"/>
    </contour>
  </outline>
</glyph>
<glyph name="ii-cy" format="2">
  <advance width="600"/>
  <unicode hex="0438"/>
  <anchor x="536" y="0" name="bottomright"/>
  <anchor x="344" y="550" name="top"/>
  <outline>
    <contour>
      <point x="226" y="-10" type="curve" smooth="yes"/>
      <point x="318" y="-10"/>
      <point x="381" y="40"/>
      <point x="395" y="126" type="curve"/>
      <point x="373" y="105" type="line"/>
      <point x="392" y="105" type="line"/>
      <point x="375" y="0" type="line"/>
      <point x="465" y="0" type="line"/>
      <point x="552" y="550" type="line"/>
      <point x="462" y="550" type="line"/>
      <point x="407" y="200" type="line" smooth="yes"/>
      <point x="393" y="115"/>
      <point x="339" y="66"/>
      <point x="264" y="66" type="curve" smooth="yes"/>
      <point x="192" y="66"/>
      <point x="155" y="112"/>
      <point x="167" y="190" type="curve" smooth="yes"/>
      <point x="224" y="550" type="line"/>
      <point x="134" y="550" type="line"/>
      <point x="75" y="180" type="line" smooth="yes"/>
      <point x="57" y="63"/>
      <point x="116" y="-10"/>
    </contour>
  </outline>
</glyph>
<glyph name="tshe-cy" format="2">
  <advance width="600"/>
  <unicode hex="045B"/>
  <outline>
    <contour>
      <point x="46" y="570" type="line"/>
      <point x="138" y="570" type="line"/>
      <point x="48" y="0" type="line"/>
      <point x="138" y="0" type="line"/>
      <point x="184" y="290" type="line" smooth="yes"/>
      <point x="197" y="375"/>
      <point x="251" y="424"/>
      <point x="326" y="424" type="curve" smooth="yes"/>
      <point x="398" y="424"/>
      <point x="436" y="378"/>
      <point x="424" y="300" type="curve" smooth="yes"/>
      <point x="376" y="0" type="line"/>
      <point x="466" y="0" type="line"/>
      <point x="515" y="310" type="line" smooth="yes"/>
      <point x="534" y="427"/>
      <point x="474" y="500"/>
      <point x="364" y="500" type="curve" smooth="yes"/>
      <point x="280" y="500"/>
      <point x="221" y="458"/>
      <point x="200" y="385" type="curve"/>
      <point x="199" y="385" type="line"/>
      <point x="216" y="490" type="line"/>
      <point x="228" y="570" type="line"/>
      <point x="396" y="570" type="line"/>
      <point x="408" y="645" type="line"/>
      <point x="240" y="645" type="line"/>
      <point x="254" y="730" type="line"/>
      <point x="164" y="730" type="line"/>
      <point x="150" y="645" type="line"/>
      <point x="58" y="645" type="line"/>
    </contour>
  </outline>
</glyph>
<glyph name="Kadescender-cy" format="2">
  <advance width="600"/>
  <unicode hex="049A"/>
  <anchor x="245" y="0" name="bottom"/>
  <anchor x="361" y="730" name="top"/>
  <outline>
    <contour>
      <point x="439" y="-140" type="line"/>
      <point x="519" y="-140" type="line"/>
      <point x="554" y="80" type="line"/>
      <point x="474" y="80" type="line"/>
    </contour>
    <component base="K" xOffset="-11"/>
  </outline>
</glyph>
<glyph name="kadescender-cy" format="2">
  <advance width="600"/>
  <unicode hex="049B"/>
  <outline>
    <contour>
      <point x="48" y="0" type="line"/>
      <point x="138" y="0" type="line"/>
      <point x="177" y="245" type="line"/>
      <point x="278" y="245" type="line"/>
      <point x="399" y="0" type="line"/>
      <point x="446" y="0" type="line"/>
      <point x="424" y="-140" type="line"/>
      <point x="504" y="-140" type="line"/>
      <point x="539" y="80" type="line"/>
      <point x="463" y="80" type="line"/>
      <point x="359" y="282" type="line"/>
      <point x="586" y="550" type="line"/>
      <point x="483" y="550" type="line"/>
      <point x="287" y="323" type="line"/>
      <point x="189" y="323" type="line"/>
      <point x="225" y="550" type="line"/>
      <point x="135" y="550" type="line"/>
    </contour>
  </outline>
</glyph>
<glyph name="Endescender-cy" format="2">
  <advance width="600"/>
  <unicode hex="04A2"/>
  <anchor x="252" y="0" name="bottom"/>
  <anchor x="310" y="365" name="center"/>
  <anchor x="368" y="730" name="top"/>
  <anchor x="88" y="730" name="topleft"/>
  <outline>
    <contour>
      <point x="404" y="-140" type="line"/>
      <point x="484" y="-140" type="line"/>
      <point x="519" y="80" type="line"/>
      <point x="439" y="80" type="line"/>
    </contour>
    <component base="H" xOffset="-4"/>
  </outline>
</glyph>
<glyph name="bitcoin" format="2">
  <advance width="600"/>
  <unicode hex="20BF"/>
  <outline>
    <contour>
      <point x="113" y="-140" type="line"/>
      <point x="173" y="-140" type="line"/>
      <point x="195" y="0" type="line"/>
      <point x="265" y="0" type="line"/>
      <point x="243" y="-140" type="line"/>
      <point x="303" y="-140" type="line"/>
      <point x="326" y="5" type="line"/>
      <point x="430" y="23"/>
      <point x="501" y="96"/>
      <point x="518" y="203" type="curve" smooth="yes"/>
      <point x="533" y="297"/>
      <point x="496" y="364"/>
      <point x="420" y="386" type="curve"/>
      <point x="492" y="405"/>
      <point x="542" y="462"/>
      <point x="555" y="541" type="curve" smooth="yes"/>
      <point x="570" y="637"/>
      <point x="527" y="702"/>
      <point x="440" y="723" type="curve"/>
      <point x="463" y="871" type="line"/>
      <point x="403" y="871" type="line"/>
      <point x="381" y="730" type="line"/>
      <point x="311" y="730" type="line"/>
      <point x="333" y="871" type="line"/>
      <point x="273" y="871" type="line"/>
      <point x="251" y="730" type="line"/>
      <point x="165" y="730" type="line"/>
      <point x="49" y="0" type="line"/>
      <point x="135" y="0" type="line"/>
    </contour>
    <contour>
      <point x="150" y="81" type="line"/>
      <point x="191" y="341" type="line"/>
      <point x="315" y="341" type="line" smooth="yes"/>
      <point x="399" y="341"/>
      <point x="442" y="286"/>
      <point x="430" y="206" type="curve" smooth="yes"/>
      <point x="417" y="129"/>
      <point x="358" y="81"/>
      <point x="274" y="81" type="curve" smooth="yes"/>
    </contour>
    <contour>
      <point x="203" y="419" type="line"/>
      <point x="240" y="649" type="line"/>
      <point x="359" y="649" type="line" smooth="yes"/>
      <point x="436" y="649"/>
      <point x="476" y="605"/>
      <point x="465" y="534" type="curve" smooth="yes"/>
      <point x="453" y="463"/>
      <point x="398" y="419"/>
      <point x="321" y="419" type="curve" smooth="yes"/>
    </contour>
  </outline>
</glyph>
<glyph name="theredoesnotexist" format="2">
  <advance width="600"/>
  <unicode hex="2204"/>
  <outline>
    <contour>
      <point x="6" y="-110" type="line"/>
      <point x="80" y="-110" type="line"/>
      <point x="573" y="830" type="line"/>
      <point x="499" y="830" type="line"/>
    </contour>
    <component base="existential"/>
  </outline>
</glyph>
<glyph name="intersection" format="2">
  <advance width="600"/>
  <unicode hex="2229"/>
  <outline>
    <contour>
      <point x="331" y="615" type="line" smooth="yes"/>
      <point x="199" y="615"/>
      <point x="100" y="528"/>
      <point x="79" y="395" type="curve" smooth="yes"/>
      <point x="29" y="80" type="line"/>
      <point x="119" y="80" type="line"/>
      <point x="169" y="395" type="line" smooth="yes"/>
      <point x="182" y="480"/>
      <point x="242" y="535"/>
      <point x="321" y="535" type="curve" smooth="yes"/>
      <point x="361" y="535" type="line" smooth="yes"/>
      <point x="440" y="535"/>
      <point x="482" y="480"/>
      <point x="469" y="395" type="curve" smooth="yes"/>
      <point x="419" y="80" type="line"/>
      <point x="509" y="80" type="line"/>
      <point x="559" y="395" type="line" smooth="yes"/>
      <point x="580" y="528"/>
      <point x="507" y="615"/>
      <point x="375" y="615" type="curve" smooth="yes"/>
    </contour>
  </outline>
</glyph>
<glyph name="neitherapproximatelynoractuallyequalto" format="2">
  <advance width="600"/>
  <unicode hex="2247"/>
  <outline>
    <contour>
      <point x="60" y="-100" type="line"/>
      <point x="123" y="-100" type="line"/>
      <point x="560" y="780" type="line"/>
      <point x="497" y="780" type="line"/>
    </contour>
    <contour>
      <point x="38" y="76" type="line"/>
      <point x="498" y="76" type="line"/>
      <point x="510" y="152" type="line"/>
      <point x="50" y="152" type="line"/>
    </contour>
    <contour>
      <point x="72" y="292" type="line"/>
      <point x="532" y="292" type="line"/>
      <point x="544" y="368" type="line"/>
      <point x="84" y="368" type="line"/>
    </contour>
    <component base="asciitilde" xOffset="32" yOffset="215"/>
  </outline>
</glyph>
<glyph name="muchgreater" format="2">
  <advance width="600"/>
  <unicode hex="226B"/>
  <outline>
    <contour>
      <point x="235" y="65" type="line"/>
      <point x="603" y="293" type="line"/>
      <point x="615" y="371" type="line"/>
      <point x="320" y="595" type="line"/>
      <point x="307" y="514" type="line"/>
      <point x="494" y="371" type="line" smooth="yes"/>
      <point x="514" y="356"/>
      <point x="536" y="341"/>
      <point x="548" y="336" type="curve"/>
      <point x="535" y="331"/>
      <point x="509" y="319"/>
      <point x="483" y="303" type="curve" smooth="yes"/>
      <point x="249" y="153" type="line"/>
    </contour>
    <contour>
      <point x="-33" y="65" type="line"/>
      <point x="333" y="293" type="line"/>
      <point x="345" y="371" type="line"/>
      <point x="51" y="595" type="line"/>
      <point x="38" y="514" type="line"/>
      <point x="224" y="371" type="line" smooth="yes"/>
      <point x="244" y="356"/>
      <point x="266" y="341"/>
      <point x="278" y="336" type="curve"/>
      <point x="265" y="331"/>
      <point x="239" y="320"/>
      <point x="213" y="303" type="curve" smooth="yes"/>
      <point x="-19" y="153" type="line"/>
    </contour>
  </outline>
</glyph>
<glyph name="squareimageof" format="2">
  <advance width="600"/>
  <unicode hex="228F"/>
  <outline>
    <contour>
      <point x="5" y="90" type="line"/>
      <point x="540" y="90" type="line"/>
      <point x="553" y="172" type="line"/>
      <point x="107" y="172" type="line"/>
      <point x="157" y="488" type="line"/>
      <point x="603" y="488" type="line"/>
      <point x="616" y="570" type="line"/>
      <point x="81" y="570" type="line"/>
    </contour>
  </outline>
</glyph>
<glyph name="squarecap" format="2">
  <advance width="600"/>
  <unicode hex="2293"/>
  <outline>
    <contour>
      <point x="29" y="80" type="line"/>
      <point x="119" y="80" type="line"/>
      <point x="190" y="533" type="line"/>
      <point x="490" y="533" type="line"/>
      <point x="419" y="80" type="line"/>
      <point x="509" y="80" type="line"/>
      <point x="593" y="615" type="line"/>
      <point x="113" y="615" type="line"/>
    </contour>
  </outline>
</glyph>
<glyph name="squarecup" format="2">
  <advance width="600"/>
  <unicode hex="2294"/>
  <outline>
    <contour>
      <point x="29" y="80" type="line"/>
      <point x="509" y="80" type="line"/>
      <point x="593" y="615" type="line"/>
      <point x="503" y="615" type="line"/>
      <point x="432" y="162" type="line"/>
      <point x="132" y="162" type="line"/>
      <point x="203" y="615" type="line"/>
      <point x="113" y="615" type="line"/>
    </contour>
  </outline>
</glyph>
<glyph name="plus.circled" format="2">
  <advance width="600"/>
  <unicode hex="2295"/>
  <outline>
    <contour>
      <point x="309" y="20" type="curve" smooth="yes"/>
      <point x="486" y="20"/>
      <point x="619" y="153"/>
      <point x="619" y="330" type="curve" smooth="yes"/>
      <point x="619" y="507"/>
      <point x="486" y="640"/>
      <point x="309" y="640" type="curve" smooth="yes"/>
      <point x="132" y="640"/>
      <point x="-1" y="507"/>
      <point x="-1" y="330" type="curve" smooth="yes"/>
      <point x="-1" y="153"/>
      <point x="132" y="20"/>
    </contour>
    <contour>
      <point x="309" y="70" type="curve" smooth="yes"/>
      <point x="161" y="70"/>
      <point x="49" y="182"/>
      <point x="49" y="330" type="curve" smooth="yes"/>
      <point x="49" y="478"/>
      <point x="161" y="590"/>
      <point x="309" y="590" type="curve" smooth="yes"/>
      <point x="457" y="590"/>
      <point x="569" y="478"/>
      <point x="569" y="330" type="curve" smooth="yes"/>
      <point x="569" y="182"/>
      <point x="457" y="70"/>
    </contour>
    <contour>
      <point x="265" y="45" type="line"/>
      <point x="353" y="45" type="line"/>
      <point x="353" y="290" type="line"/>
      <point x="594" y="290" type="line"/>
      <point x="594" y="370" type="line"/>
      <point x="353" y="370" type="line"/>
      <point x="353" y="615" type="line"/>
      <point x="265" y="615" type="line"/>
      <point x="265" y="370" type="line"/>
      <point x="24" y="370" type="line"/>
      <point x="24" y="290" type="line"/>
      <point x="265" y="290" type="line"/>
    </contour>
  </outline>
</glyph>
<glyph name="leftCeiling" format="2">
  <advance width="600"/>
  <unicode hex="2308"/>
  <outline>
    <contour>
      <point x="144" y="-110" type="line"/>
      <point x="234" y="-110" type="line"/>
      <point x="370" y="750" type="line"/>
      <point x="525" y="750" type="line"/>
      <point x="537" y="830" type="line"/>
      <point x="292" y="830" type="line"/>
    </contour>
  </outline>
</glyph>
<glyph name="leftWhiteSmallTriangle" format="2">
  <advance width="600"/>
  <unicode hex="25C3"/>
  <outline>
    <contour>
      <point x="450" y="210" type="line"/>
      <point x="450" y="510" type="line"/>
      <point x="140" y="360" type="line"/>
    </contour>
    <contour>
      <point x="410" y="274" type="line"/>
      <point x="232" y="360" type="line"/>
      <point x="410" y="446" type="line"/>
    </contour>
  </outline>
</glyph>
<glyph name="SdoubleStruck" format="2">
  <advance width="600"/>
  <unicode hex="1D54A"/>
  <outline>
    <contour>
      <point x="68" y="172" type="line"/>
      <point x="78" y="64"/>
      <point x="167" y="-10"/>
      <point x="287" y="-10" type="curve" smooth="yes"/>
      <point x="428" y="-10"/>
      <point x="524" y="81"/>
      <point x="524" y="218" type="curve" smooth="yes"/>
      <point x="524" y="304"/>
      <point x="480" y="379"/>
      <point x="409" y="413" type="curve" smooth="yes"/>
      <point x="295" y="468" type="line" smooth="yes"/>
      <point x="248" y="491"/>
      <point x="219" y="536"/>
      <point x="219" y="586" type="curve" smooth="yes"/>
      <point x="219" y="651"/>
      <point x="263" y="695"/>
      <point x="326" y="695" type="curve" smooth="yes"/>
      <point x="397" y="695"/>
      <point x="450" y="641"/>
      <point x="457" y="563" type="curve"/>
      <point x="507" y="563" type="line"/>
      <point x="497" y="668"/>
      <point x="413" y="740"/>
      <point x="301" y="740" type="curve" smooth="yes"/>
      <point x="172" y="740"/>
      <point x="83" y="654"/>
      <point x="83" y="527" type="curve" smooth="yes"/>
      <point x="83" y="451"/>
      <point x="124" y="384"/>
      <point x="189" y="353" type="curve" smooth="yes"/>
      <point x="305" y="298" type="line" smooth="yes"/>
      <point x="354" y="275"/>
      <point x="384" y="225"/>
      <point x="384" y="167" type="curve" smooth="yes"/>
      <point x="384" y="88"/>
      <point x="335" y="35"/>
      <point x="263" y="35" type="curve" smooth="yes"/>
      <point x="186" y="35"/>
      <point x="127" y="91"/>
      <point x="118" y="172" type="curve"/>
    </contour>
    <contour>
      <point x="126" y="536" type="curve" smooth="yes"/>
      <point x="126" y="619"/>
      <point x="173" y="681"/>
      <point x="246" y="703" type="curve"/>
      <point x="203" y="680"/>
      <point x="177" y="636"/>
      <point x="176" y="580" type="curve" smooth="yes"/>
      <point x="175" y="517"/>
      <point x="214" y="458"/>
      <point x="278" y="428" type="curve" smooth="yes"/>
      <point x="387" y="377" type="line" smooth="yes"/>
      <point x="446" y="349"/>
      <point x="483" y="285"/>
      <point x="483" y="211" type="curve" smooth="yes"/>
      <point x="483" y="128"/>
      <point x="439" y="65"/>
      <point x="369" y="37" type="curve"/>
      <point x="405" y="66"/>
      <point x="427" y="113"/>
      <point x="427" y="173" type="curve" smooth="yes"/>
      <point x="427" y="244"/>
      <point x="389" y="306"/>
      <point x="328" y="335" type="curve" smooth="yes"/>
      <point x="215" y="389" type="line" smooth="yes"/>
      <point x="160" y="415"/>
      <point x="126" y="471"/>
    </contour>
  </outline>
</glyph>
<glyph name="F.half" format="2">
  <advance width="400"/>
  <outline>
    <contour>
      <point x="18" y="0" type="line"/>
      <point x="84" y="0" type="line"/>
      <point x="105" y="133" type="line"/>
      <point x="307" y="133" type="line"/>
      <point x="316" y="191" type="line"/>
      <point x="114" y="191" type="line"/>
      <point x="128" y="277" type="line"/>
      <point x="360" y="277" type="line"/>
      <point x="369" y="335" type="line"/>
      <point x="71" y="335" type="line"/>
    </contour>
  </outline>
</glyph>
<glyph name="S.half" format="2">
  <advance width="400"/>
  <outline>
    <contour>
      <point x="143" y="-4" type="curve" smooth="yes"/>
      <point x="168" y="-4" type="line" smooth="yes"/>
      <point x="256" y="-4"/>
      <point x="332" y="39"/>
      <point x="332" y="116" type="curve" smooth="yes"/>
      <point x="332" y="160"/>
      <point x="297" y="191"/>
      <point x="236" y="198" type="curve" smooth="yes"/>
      <point x="150" y="208" type="line" smooth="yes"/>
      <point x="122" y="211"/>
      <point x="107" y="223"/>
      <point x="107" y="240" type="curve" smooth="yes"/>
      <point x="107" y="265"/>
      <point x="137" y="281"/>
      <point x="184" y="281" type="curve" smooth="yes"/>
      <point x="209" y="281" type="line" smooth="yes"/>
      <point x="253" y="281"/>
      <point x="281" y="267"/>
      <point x="283" y="244" type="curve"/>
      <point x="349" y="244" type="line"/>
      <point x="349" y="302"/>
      <point x="299" y="339"/>
      <point x="218" y="339" type="curve" smooth="yes"/>
      <point x="193" y="339" type="line" smooth="yes"/>
      <point x="111" y="339"/>
      <point x="39" y="299"/>
      <point x="39" y="228" type="curve" smooth="yes"/>
      <point x="39" y="185"/>
      <point x="74" y="155"/>
      <point x="132" y="149" type="curve" smooth="yes"/>
      <point x="218" y="139" type="line" smooth="yes"/>
      <point x="250" y="135"/>
      <point x="268" y="119"/>
      <point x="265" y="98" type="curve" smooth="yes"/>
      <point x="260" y="71"/>
      <point x="227" y="54"/>
      <point x="178" y="54" type="curve" smooth="yes"/>
      <point x="153" y="54" type="line" smooth="yes"/>
      <point x="105" y="54"/>
      <point x="75" y="73"/>
      <point x="75" y="103" type="curve"/>
      <point x="9" y="103" type="line"/>
      <point x="6" y="37"/>
      <point x="57" y="-4"/>
    </contour>
  </outline>
</glyph>
<glyph name="asciitilde_asciitilde_greater.liga" format="2">
  <advance width="600"/>
  <outline>
    <contour>
      <point x="145" y="35" type="line"/>
      <point x="255" y="35" type="line"/>
      <point x="533" y="330" type="line"/>
      <point x="349" y="625" type="line"/>
      <point x="248" y="625" type="line"/>
      <point x="382" y="414" type="line"/>
      <point x="303" y="386"/>
      <point x="272" y="304"/>
      <point x="214" y="304" type="curve" smooth="yes"/>
      <point x="144" y="304"/>
      <point x="160" y="434"/>
      <point x="35" y="434" type="curve" smooth="yes"/>
      <point x="-90" y="434"/>
      <point x="-116" y="304"/>
      <point x="-186" y="304" type="curve" smooth="yes"/>
      <point x="-256" y="304"/>
      <point x="-240" y="434"/>
      <point x="-365" y="434" type="curve" smooth="yes"/>
      <point x="-490" y="434"/>
      <point x="-523" y="304"/>
      <point x="-591" y="304" type="curve" smooth="yes"/>
      <point x="-661" y="304"/>
      <point x="-650" y="434"/>
      <point x="-775" y="434" type="curve" smooth="yes"/>
      <point x="-900" y="434"/>
      <point x="-926" y="304"/>
      <point x="-994" y="304" type="curve" smooth="yes"/>
      <point x="-1024" y="304"/>
      <point x="-1037" y="323"/>
      <point x="-1032" y="359" type="curve" smooth="yes"/>
      <point x="-1026" y="399" type="line"/>
      <point x="-1111" y="399" type="line"/>
      <point x="-1117" y="359" type="line" smooth="yes"/>
      <point x="-1129" y="282"/>
      <point x="-1086" y="229"/>
      <point x="-1008" y="229" type="curve" smooth="yes"/>
      <point x="-883" y="229"/>
      <point x="-859" y="359"/>
      <point x="-789" y="359" type="curve" smooth="yes"/>
      <point x="-719" y="359"/>
      <point x="-728" y="229"/>
      <point x="-603" y="229" type="curve" smooth="yes"/>
      <point x="-478" y="229"/>
      <point x="-447" y="359"/>
      <point x="-377" y="359" type="curve" smooth="yes"/>
      <point x="-307" y="359"/>
      <point x="-323" y="229"/>
      <point x="-198" y="229" type="curve" smooth="yes"/>
      <point x="-73" y="229"/>
      <point x="-47" y="359"/>
      <point x="23" y="359" type="curve" smooth="yes"/>
      <point x="93" y="359"/>
      <point x="77" y="229"/>
      <point x="202" y="229" type="curve" smooth="yes"/>
      <point x="326" y="229"/>
      <point x="354" y="347"/>
      <point x="422" y="349" type="curve"/>
      <point x="434" y="333" type="line"/>
    </contour>
  </outline>
</glyph>
<glyph name="bar_greater.liga" format="2">
  <advance width="600"/>
  <outline>
    <contour>
      <point x="-382" y="-85" type="line"/>
      <point x="-292" y="-85" type="line"/>
      <point x="360" y="280" type="line"/>
      <point x="376" y="380" type="line"/>
      <point x="-160" y="750" type="line"/>
      <point x="-250" y="750" type="line"/>
    </contour>
    <contour>
      <point x="-274" y="26" type="line"/>
      <point x="-175" y="650" type="line"/>
      <point x="226" y="376" type="line" smooth="yes"/>
      <point x="253" y="358"/>
      <point x="279" y="342"/>
      <point x="291" y="335" type="curve"/>
      <point x="277" y="329"/>
      <point x="246" y="314"/>
      <point x="214" y="296" type="curve" smooth="yes"/>
    </contour>
  </outline>
</glyph>
<glyph name="braceleft_exclam_hyphen_hyphen.liga" format="2">
  <advance width="600"/>
  <outline>
    <contour>
      <point x="-698" y="290" type="line"/>
      <point x="517" y="290" type="line"/>
      <point x="530" y="370" type="line"/>
      <point x="-685" y="370" type="line"/>
    </contour>
    <contour>
      <point x="-1468" y="290" type="line"/>
      <point x="-1098" y="290" type="line"/>
      <point x="-1085" y="370" type="line"/>
      <point x="-1455" y="370" type="line"/>
    </contour>
    <component base="exclam" xOffset="-1198"/>
    <component base="braceleft" xOffset="-1740" yOffset="-30"/>
  </outline>
</glyph>
<glyph name="brevebelowcomb.case" format="2">
  <anchor x="-344" y="0" name="_bottom"/>
  <anchor x="-382" y="-240" name="bottom"/>
  <outline>
    <contour>
      <point x="-382" y="-240" type="curve" smooth="yes"/>
      <point x="-286" y="-240"/>
      <point x="-213" y="-182"/>
      <point x="-199" y="-95" type="curve"/>
      <point x="-270" y="-95" type="line"/>
      <point x="-278" y="-147"/>
      <point x="-320" y="-182"/>
      <point x="-374" y="-182" type="curve" smooth="yes"/>
      <point x="-427" y="-182"/>
      <point x="-456" y="-147"/>
      <point x="-448" y="-95" type="curve"/>
      <point x="-519" y="-95" type="line"/>
      <point x="-533" y="-182"/>
      <point x="-478" y="-240"/>
    </contour>
  </outline>
</glyph>
<glyph name="circumflexcomb_acutecomb.case" format="2">
  <anchor x="-228" y="730" name="_top"/>
  <anchor x="-113" y="1020" name="top"/>
  <outline>
    <contour>
      <point x="-95" y="900" type="line"/>
      <point x="6" y="900" type="line"/>
      <point x="135" y="1020" type="line"/>
      <point x="29" y="1020" type="line"/>
    </contour>
    <contour>
      <point x="-400" y="780" type="line"/>
      <point x="-298" y="780" type="line"/>
      <point x="-205" y="858" type="line"/>
      <point x="-137" y="780" type="line"/>
      <point x="-39" y="780" type="line"/>
      <point x="-156" y="920" type="line"/>
      <point x="-240" y="920" type="line"/>
    </contour>
  </outline>
</glyph>
<glyph name="circumflexcomb_gravecomb" format="2">
  <anchor x="-256" y="550" name="_top"/>
  <anchor x="-164" y="900" name="top"/>
  <outline>
    <contour>
      <point x="-59" y="760" type="line"/>
      <point x="32" y="760" type="line"/>
      <point x="-71" y="900" type="line"/>
      <point x="-167" y="900" type="line"/>
    </contour>
    <contour>
      <point x="-423" y="645" type="line"/>
      <point x="-320" y="645" type="line"/>
      <point x="-227" y="723" type="line"/>
      <point x="-158" y="645" type="line"/>
      <point x="-61" y="645" type="line"/>
      <point x="-179" y="785" type="line"/>
      <point x="-262" y="785" type="line"/>
    </contour>
  </outline>
</glyph>
<glyph name="greater_equal_greater.liga" format="2">
  <advance width="600"/>
  <outline>
    <contour>
      <point x="-1144" y="35" type="line"/>
      <point x="-1034" y="35" type="line"/>
      <point x="-907" y="170" type="line"/>
      <point x="273" y="170" type="line"/>
      <point x="145" y="35" type="line"/>
      <point x="255" y="35" type="line"/>
      <point x="533" y="330" type="line"/>
      <point x="349" y="625" type="line"/>
      <point x="248" y="625" type="line"/>
      <point x="334" y="490" type="line"/>
      <point x="-855" y="490" type="line"/>
      <point x="-940" y="625" type="line"/>
      <point x="-1041" y="625" type="line"/>
      <point x="-859" y="333" type="line"/>
    </contour>
    <contour>
      <point x="-831" y="250" type="line"/>
      <point x="-756" y="330" type="line"/>
      <point x="-806" y="410" type="line"/>
      <point x="384" y="410" type="line"/>
      <point x="434" y="333" type="line"/>
      <point x="350" y="250" type="line"/>
    </contour>
  </outline>
</glyph>
<glyph name="hyphen_less_less.liga" format="2">
  <advance width="600"/>
  <outline>
    <contour>
      <point x="56" y="35" type="line"/>
      <point x="157" y="35" type="line"/>
      <point x="-27" y="325" type="line"/>
      <point x="260" y="625" type="line"/>
      <point x="150" y="625" type="line"/>
      <point x="-91" y="370" type="line"/>
      <point x="-1100" y="370" type="line"/>
      <point x="-1113" y="290" type="line"/>
      <point x="-104" y="290" type="line"/>
    </contour>
    <contour>
      <point x="356" y="35" type="line"/>
      <point x="457" y="35" type="line"/>
      <point x="272" y="325" type="line"/>
      <point x="560" y="625" type="line"/>
      <point x="450" y="625" type="line"/>
      <point x="171" y="330" type="line"/>
    </contour>
  </outline>
</glyph>
<glyph name="less_dollar_greater.liga" format="2">
  <advance width="600"/>
  <outline>
    <contour>
      <point x="-391" y="-140" type="line"/>
      <point x="-331" y="-140" type="line"/>
      <point x="-310" y="-9" type="line"/>
      <point x="-192" y="3"/>
      <point x="-103" y="80"/>
      <point x="-86" y="190" type="curve" smooth="yes"/>
      <point x="-71" y="285"/>
      <point x="-118" y="365"/>
      <point x="-206" y="395" type="curve" smooth="yes"/>
      <point x="-244" y="408" type="line"/>
      <point x="-205" y="658" type="line"/>
      <point x="-172" y="653"/>
      <point x="-136" y="645"/>
      <point x="-96" y="623" type="curve"/>
      <point x="438" y="333" type="line"/>
      <point x="40" y="157" type="line"/>
      <point x="26" y="65" type="line"/>
      <point x="490" y="280" type="line"/>
      <point x="506" y="380" type="line"/>
      <point x="-48" y="689" type="line" smooth="yes"/>
      <point x="-94" y="715"/>
      <point x="-147" y="732"/>
      <point x="-192" y="737" type="curve"/>
      <point x="-171" y="870" type="line"/>
      <point x="-231" y="870" type="line"/>
      <point x="-252" y="737" type="line"/>
      <point x="-366" y="726"/>
      <point x="-449" y="653"/>
      <point x="-466" y="546" type="curve" smooth="yes"/>
      <point x="-481" y="449"/>
      <point x="-434" y="372"/>
      <point x="-342" y="344" type="curve" smooth="yes"/>
      <point x="-316" y="336" type="line"/>
      <point x="-358" y="71" type="line"/>
      <point x="-430" y="73"/>
      <point x="-488" y="82"/>
      <point x="-543" y="108" type="curve"/>
      <point x="-1021" y="327" type="line"/>
      <point x="-624" y="503" type="line"/>
      <point x="-610" y="595" type="line"/>
      <point x="-1074" y="380" type="line"/>
      <point x="-1090" y="280" type="line"/>
      <point x="-588" y="42" type="line" smooth="yes"/>
      <point x="-523" y="11"/>
      <point x="-451" y="-6"/>
      <point x="-370" y="-9" type="curve"/>
    </contour>
    <contour>
      <point x="-298" y="72" type="curve"/>
      <point x="-259" y="317" type="line"/>
      <point x="-248" y="313" type="line" smooth="yes"/>
      <point x="-192" y="293"/>
      <point x="-167" y="249"/>
      <point x="-176" y="188" type="curve" smooth="yes"/>
      <point x="-186" y="124"/>
      <point x="-231" y="82"/>
    </contour>
    <contour>
      <point x="-307" y="389" type="line"/>
      <point x="-275" y="416" type="line"/>
      <point x="-346" y="427"/>
      <point x="-385" y="479"/>
      <point x="-375" y="550" type="curve" smooth="yes"/>
      <point x="-366" y="607"/>
      <point x="-323" y="649"/>
      <point x="-265" y="658" type="curve"/>
    </contour>
  </outline>
</glyph>
<glyph name="less_equal_greater.liga" format="2">
  <advance width="600"/>
  <outline>
    <contour>
      <point x="-932" y="35" type="line"/>
      <point x="-831" y="35" type="line"/>
      <point x="-917" y="170" type="line"/>
      <point x="274" y="170" type="line"/>
      <point x="145" y="35" type="line"/>
      <point x="255" y="35" type="line"/>
      <point x="533" y="330" type="line"/>
      <point x="349" y="625" type="line"/>
      <point x="248" y="625" type="line"/>
      <point x="333" y="490" type="line"/>
      <point x="-856" y="490" type="line"/>
      <point x="-728" y="625" type="line"/>
      <point x="-838" y="625" type="line"/>
      <point x="-1117" y="330" type="line"/>
    </contour>
    <contour>
      <point x="-967" y="250" type="line"/>
      <point x="-1014" y="325" type="line"/>
      <point x="-933" y="410" type="line"/>
      <point x="383" y="410" type="line"/>
      <point x="431" y="333" type="line"/>
      <point x="351" y="250" type="line"/>
    </contour>
  </outline>
</glyph>
<glyph name="macronbelowcomb.case" format="2">
  <anchor x="-344" y="0" name="_bottom"/>
  <anchor x="-375" y="-195" name="bottom"/>
  <outline>
    <contour>
      <point x="-535" y="-195" type="line"/>
      <point x="-215" y="-195" type="line"/>
      <point x="-203" y="-120" type="line"/>
      <point x="-523" y="-120" type="line"/>
    </contour>
  </outline>
</glyph>
<glyph name="macroncomb.case" format="2">
  <anchor x="-228" y="730" name="_top"/>
  <anchor x="-199" y="915" name="top"/>
  <outline>
    <contour>
      <point x="-371" y="840" type="line"/>
      <point x="-51" y="840" type="line"/>
      <point x="-39" y="915" type="line"/>
      <point x="-359" y="915" type="line"/>
    </contour>
  </outline>
</glyph>
<glyph name="numbersign_bracketleft.liga" format="2">
  <advance width="600"/>
  <outline>
    <contour>
      <point x="-561" y="0" type="line"/>
      <point x="-491" y="0" type="line"/>
      <point x="-419" y="210" type="line"/>
      <point x="-259" y="210" type="line"/>
      <point x="-331" y="0" type="line"/>
      <point x="-261" y="0" type="line"/>
      <point x="-189" y="210" type="line"/>
      <point x="254" y="210" type="line"/>
      <point x="265" y="275" type="line"/>
      <point x="-167" y="275" type="line"/>
      <point x="-105" y="455" type="line"/>
      <point x="293" y="455" type="line"/>
      <point x="303" y="520" type="line"/>
      <point x="-84" y="520" type="line"/>
      <point x="-11" y="730" type="line"/>
      <point x="-81" y="730" type="line"/>
      <point x="-154" y="520" type="line"/>
      <point x="-314" y="520" type="line"/>
      <point x="-241" y="730" type="line"/>
      <point x="-311" y="730" type="line"/>
      <point x="-384" y="520" type="line"/>
      <point x="-492" y="520" type="line"/>
      <point x="-502" y="455" type="line"/>
      <point x="-405" y="455" type="line"/>
      <point x="-467" y="275" type="line"/>
      <point x="-565" y="275" type="line"/>
      <point x="-576" y="210" type="line"/>
      <point x="-489" y="210" type="line"/>
    </contour>
    <contour>
      <point x="-397" y="275" type="line"/>
      <point x="-335" y="455" type="line"/>
      <point x="-175" y="455" type="line"/>
      <point x="-237" y="275" type="line"/>
    </contour>
    <component base="bracketleft"/>
  </outline>
</glyph>
<glyph name="numbersign_numbersign_numbersign_numbersign.liga" format="2">
  <advance width="600"/>
  <outline>
    <contour>
      <point x="-1731" y="0" type="line"/>
      <point x="-1661" y="0" type="line"/>
      <point x="-1589" y="210" type="line"/>
      <point x="-1429" y="210" type="line"/>
      <point x="-1501" y="0" type="line"/>
      <point x="-1431" y="0" type="line"/>
      <point x="-1359" y="210" type="line"/>
      <point x="-1079" y="210" type="line"/>
      <point x="-1151" y="0" type="line"/>
      <point x="-1081" y="0" type="line"/>
      <point x="-1009" y="210" type="line"/>
      <point x="-849" y="210" type="line"/>
      <point x="-921" y="0" type="line"/>
      <point x="-851" y="0" type="line"/>
      <point x="-779" y="210" type="line"/>
      <point x="-499" y="210" type="line"/>
      <point x="-571" y="0" type="line"/>
      <point x="-501" y="0" type="line"/>
      <point x="-429" y="210" type="line"/>
      <point x="-269" y="210" type="line"/>
      <point x="-341" y="0" type="line"/>
      <point x="-271" y="0" type="line"/>
      <point x="-199" y="210" type="line"/>
      <point x="81" y="210" type="line"/>
      <point x="9" y="0" type="line"/>
      <point x="79" y="0" type="line"/>
      <point x="151" y="210" type="line"/>
      <point x="311" y="210" type="line"/>
      <point x="239" y="0" type="line"/>
      <point x="309" y="0" type="line"/>
      <point x="381" y="210" type="line"/>
      <point x="489" y="210" type="line"/>
      <point x="500" y="275" type="line"/>
      <point x="403" y="275" type="line"/>
      <point x="465" y="455" type="line"/>
      <point x="563" y="455" type="line"/>
      <point x="573" y="520" type="line"/>
      <point x="486" y="520" type="line"/>
      <point x="559" y="730" type="line"/>
      <point x="489" y="730" type="line"/>
      <point x="416" y="520" type="line"/>
      <point x="256" y="520" type="line"/>
      <point x="329" y="730" type="line"/>
      <point x="259" y="730" type="line"/>
      <point x="186" y="520" type="line"/>
      <point x="-94" y="520" type="line"/>
      <point x="-21" y="730" type="line"/>
      <point x="-91" y="730" type="line"/>
      <point x="-164" y="520" type="line"/>
      <point x="-324" y="520" type="line"/>
      <point x="-251" y="730" type="line"/>
      <point x="-321" y="730" type="line"/>
      <point x="-394" y="520" type="line"/>
      <point x="-674" y="520" type="line"/>
      <point x="-601" y="730" type="line"/>
      <point x="-671" y="730" type="line"/>
      <point x="-744" y="520" type="line"/>
      <point x="-904" y="520" type="line"/>
      <point x="-831" y="730" type="line"/>
      <point x="-901" y="730" type="line"/>
      <point x="-974" y="520" type="line"/>
      <point x="-1254" y="520" type="line"/>
      <point x="-1181" y="730" type="line"/>
      <point x="-1251" y="730" type="line"/>
      <point x="-1324" y="520" type="line"/>
      <point x="-1484" y="520" type="line"/>
      <point x="-1411" y="730" type="line"/>
      <point x="-1481" y="730" type="line"/>
      <point x="-1554" y="520" type="line"/>
      <point x="-1662" y="520" type="line"/>
      <point x="-1672" y="455" type="line"/>
      <point x="-1575" y="455" type="line"/>
      <point x="-1637" y="275" type="line"/>
      <point x="-1735" y="275" type="line"/>
      <point x="-1746" y="210" type="line"/>
      <point x="-1659" y="210" type="line"/>
    </contour>
    <contour>
      <point x="-1567" y="275" type="line"/>
      <point x="-1505" y="455" type="line"/>
      <point x="-1345" y="455" type="line"/>
      <point x="-1407" y="275" type="line"/>
    </contour>
    <contour>
      <point x="-1337" y="275" type="line"/>
      <point x="-1275" y="455" type="line"/>
      <point x="-995" y="455" type="line"/>
      <point x="-1057" y="275" type="line"/>
    </contour>
    <contour>
      <point x="-987" y="275" type="line"/>
      <point x="-925" y="455" type="line"/>
      <point x="-765" y="455" type="line"/>
      <point x="-827" y="275" type="line"/>
    </contour>
    <contour>
      <point x="-757" y="275" type="line"/>
      <point x="-695" y="455" type="line"/>
      <point x="-415" y="455" type="line"/>
      <point x="-477" y="275" type="line"/>
    </contour>
    <contour>
      <point x="-407" y="275" type="line"/>
      <point x="-345" y="455" type="line"/>
      <point x="-185" y="455" type="line"/>
      <point x="-247" y="275" type="line"/>
    </contour>
    <contour>
      <point x="-177" y="275" type="line"/>
      <point x="-115" y="455" type="line"/>
      <point x="165" y="455" type="line"/>
      <point x="103" y="275" type="line"/>
    </contour>
    <contour>
      <point x="173" y="275" type="line"/>
      <point x="235" y="455" type="line"/>
      <point x="395" y="455" type="line"/>
      <point x="333" y="275" type="line"/>
    </contour>
  </outline>
</glyph>
